<svg width="660" height="660" viewBox="0 0 660 660" fill="none" xmlns="http://www.w3.org/2000/svg">
<rect width="660" height="660" fill="#B9967C"/>
<rect x="50" y="50" width="40" height="40" stroke="black"/>
<rect x="50" y="250" width="40" height="40" stroke="black"/>
<rect x="50" y="370" width="40" height="40" stroke="black"/>
<rect x="50" y="90" width="40" height="40" stroke="black"/>
<rect x="50" y="290" width="40" height="40" stroke="black"/>
<rect x="50" y="410" width="40" height="40" stroke="black"/>
<rect x="50" y="130" width="40" height="40" stroke="black"/>
<rect x="50" y="330" width="40" height="40" stroke="black"/>
<rect x="50" y="450" width="40" height="40" stroke="black"/>
<rect x="50" y="530" width="40" height="40" stroke="black"/>
<rect x="50" y="170" width="40" height="40" stroke="black"/>
<rect x="50" y="370" width="40" height="40" stroke="black"/>
<rect x="50" y="490" width="40" height="40" stroke="black"/>
<rect x="50" y="570" width="40" height="40" stroke="black"/>
<rect x="50" y="210" width="40" height="40" stroke="black"/>
<rect x="50" y="410" width="40" height="40" stroke="black"/>
<rect x="210" y="50" width="40" height="40" stroke="black"/>
<rect x="210" y="250" width="40" height="40" stroke="black"/>
<rect x="210" y="370" width="40" height="40" stroke="black"/>
<rect x="210" y="90" width="40" height="40" stroke="black"/>
<rect x="210" y="290" width="40" height="40" stroke="black"/>
<rect x="210" y="410" width="40" height="40" stroke="black"/>
<rect x="210" y="130" width="40" height="40" stroke="black"/>
<rect x="210" y="330" width="40" height="40" stroke="black"/>
<rect x="210" y="450" width="40" height="40" stroke="black"/>
<rect x="210" y="530" width="40" height="40" stroke="black"/>
<rect x="210" y="170" width="40" height="40" stroke="black"/>
<rect x="210" y="370" width="40" height="40" stroke="black"/>
<rect x="210" y="490" width="40" height="40" stroke="black"/>
<rect x="210" y="570" width="40" height="40" stroke="black"/>
<rect x="210" y="210" width="40" height="40" stroke="black"/>
<rect x="210" y="410" width="40" height="40" stroke="black"/>
<rect x="370" y="50" width="40" height="40" stroke="black"/>
<rect x="370" y="250" width="40" height="40" stroke="black"/>
<rect x="370" y="370" width="40" height="40" stroke="black"/>
<rect x="370" y="90" width="40" height="40" stroke="black"/>
<rect x="370" y="290" width="40" height="40" stroke="black"/>
<rect x="370" y="410" width="40" height="40" stroke="black"/>
<rect x="370" y="130" width="40" height="40" stroke="black"/>
<rect x="370" y="330" width="40" height="40" stroke="black"/>
<rect x="370" y="450" width="40" height="40" stroke="black"/>
<rect x="370" y="530" width="40" height="40" stroke="black"/>
<rect x="370" y="170" width="40" height="40" stroke="black"/>
<rect x="370" y="370" width="40" height="40" stroke="black"/>
<rect x="370" y="490" width="40" height="40" stroke="black"/>
<rect x="370" y="570" width="40" height="40" stroke="black"/>
<rect x="370" y="210" width="40" height="40" stroke="black"/>
<rect x="370" y="410" width="40" height="40" stroke="black"/>
<rect x="90" y="50" width="40" height="40" stroke="black"/>
<rect x="90" y="250" width="40" height="40" stroke="black"/>
<rect x="90" y="370" width="40" height="40" stroke="black"/>
<rect x="90" y="90" width="40" height="40" stroke="black"/>
<rect x="90" y="290" width="40" height="40" stroke="black"/>
<rect x="90" y="410" width="40" height="40" stroke="black"/>
<rect x="90" y="130" width="40" height="40" stroke="black"/>
<rect x="90" y="330" width="40" height="40" stroke="black"/>
<rect x="90" y="450" width="40" height="40" stroke="black"/>
<rect x="90" y="530" width="40" height="40" stroke="black"/>
<rect x="90" y="170" width="40" height="40" stroke="black"/>
<rect x="90" y="370" width="40" height="40" stroke="black"/>
<rect x="90" y="490" width="40" height="40" stroke="black"/>
<rect x="90" y="570" width="40" height="40" stroke="black"/>
<rect x="90" y="210" width="40" height="40" stroke="black"/>
<rect x="90" y="410" width="40" height="40" stroke="black"/>
<rect x="250" y="50" width="40" height="40" stroke="black"/>
<rect x="250" y="250" width="40" height="40" stroke="black"/>
<rect x="250" y="370" width="40" height="40" stroke="black"/>
<rect x="250" y="90" width="40" height="40" stroke="black"/>
<rect x="250" y="290" width="40" height="40" stroke="black"/>
<rect x="250" y="410" width="40" height="40" stroke="black"/>
<rect x="250" y="130" width="40" height="40" stroke="black"/>
<rect x="250" y="330" width="40" height="40" stroke="black"/>
<rect x="250" y="450" width="40" height="40" stroke="black"/>
<rect x="250" y="530" width="40" height="40" stroke="black"/>
<rect x="250" y="170" width="40" height="40" stroke="black"/>
<rect x="250" y="370" width="40" height="40" stroke="black"/>
<rect x="250" y="490" width="40" height="40" stroke="black"/>
<rect x="250" y="570" width="40" height="40" stroke="black"/>
<rect x="250" y="210" width="40" height="40" stroke="black"/>
<rect x="250" y="410" width="40" height="40" stroke="black"/>
<rect x="410" y="50" width="40" height="40" stroke="black"/>
<rect x="410" y="250" width="40" height="40" stroke="black"/>
<rect x="410" y="370" width="40" height="40" stroke="black"/>
<rect x="410" y="90" width="40" height="40" stroke="black"/>
<rect x="410" y="290" width="40" height="40" stroke="black"/>
<rect x="410" y="410" width="40" height="40" stroke="black"/>
<rect x="410" y="130" width="40" height="40" stroke="black"/>
<rect x="410" y="330" width="40" height="40" stroke="black"/>
<rect x="410" y="450" width="40" height="40" stroke="black"/>
<rect x="410" y="530" width="40" height="40" stroke="black"/>
<rect x="410" y="170" width="40" height="40" stroke="black"/>
<rect x="410" y="370" width="40" height="40" stroke="black"/>
<rect x="410" y="490" width="40" height="40" stroke="black"/>
<rect x="410" y="570" width="40" height="40" stroke="black"/>
<rect x="410" y="210" width="40" height="40" stroke="black"/>
<rect x="410" y="410" width="40" height="40" stroke="black"/>
<rect x="130" y="50" width="40" height="40" stroke="black"/>
<rect x="130" y="250" width="40" height="40" stroke="black"/>
<rect x="130" y="370" width="40" height="40" stroke="black"/>
<rect x="130" y="90" width="40" height="40" stroke="black"/>
<rect x="130" y="290" width="40" height="40" stroke="black"/>
<rect x="130" y="410" width="40" height="40" stroke="black"/>
<rect x="130" y="130" width="40" height="40" stroke="black"/>
<rect x="130" y="330" width="40" height="40" stroke="black"/>
<rect x="130" y="450" width="40" height="40" stroke="black"/>
<rect x="130" y="530" width="40" height="40" stroke="black"/>
<rect x="130" y="170" width="40" height="40" stroke="black"/>
<rect x="130" y="370" width="40" height="40" stroke="black"/>
<rect x="130" y="490" width="40" height="40" stroke="black"/>
<rect x="130" y="570" width="40" height="40" stroke="black"/>
<rect x="130" y="210" width="40" height="40" stroke="black"/>
<rect x="130" y="410" width="40" height="40" stroke="black"/>
<rect x="290" y="50" width="40" height="40" stroke="black"/>
<rect x="290" y="250" width="40" height="40" stroke="black"/>
<rect x="290" y="370" width="40" height="40" stroke="black"/>
<rect x="290" y="90" width="40" height="40" stroke="black"/>
<rect x="290" y="290" width="40" height="40" stroke="black"/>
<rect x="290" y="410" width="40" height="40" stroke="black"/>
<rect x="290" y="130" width="40" height="40" stroke="black"/>
<rect x="290" y="330" width="40" height="40" stroke="black"/>
<rect x="290" y="450" width="40" height="40" stroke="black"/>
<rect x="290" y="530" width="40" height="40" stroke="black"/>
<rect x="290" y="170" width="40" height="40" stroke="black"/>
<rect x="290" y="370" width="40" height="40" stroke="black"/>
<rect x="290" y="490" width="40" height="40" stroke="black"/>
<rect x="290" y="570" width="40" height="40" stroke="black"/>
<rect x="290" y="210" width="40" height="40" stroke="black"/>
<rect x="290" y="410" width="40" height="40" stroke="black"/>
<rect x="450" y="50" width="40" height="40" stroke="black"/>
<rect x="450" y="250" width="40" height="40" stroke="black"/>
<rect x="450" y="370" width="40" height="40" stroke="black"/>
<rect x="450" y="90" width="40" height="40" stroke="black"/>
<rect x="450" y="290" width="40" height="40" stroke="black"/>
<rect x="450" y="410" width="40" height="40" stroke="black"/>
<rect x="450" y="130" width="40" height="40" stroke="black"/>
<rect x="450" y="330" width="40" height="40" stroke="black"/>
<rect x="450" y="450" width="40" height="40" stroke="black"/>
<rect x="450" y="530" width="40" height="40" stroke="black"/>
<rect x="450" y="170" width="40" height="40" stroke="black"/>
<rect x="450" y="370" width="40" height="40" stroke="black"/>
<rect x="450" y="490" width="40" height="40" stroke="black"/>
<rect x="450" y="570" width="40" height="40" stroke="black"/>
<rect x="450" y="210" width="40" height="40" stroke="black"/>
<rect x="450" y="410" width="40" height="40" stroke="black"/>
<rect x="530" y="50" width="40" height="40" stroke="black"/>
<rect x="530" y="250" width="40" height="40" stroke="black"/>
<rect x="530" y="370" width="40" height="40" stroke="black"/>
<rect x="530" y="90" width="40" height="40" stroke="black"/>
<rect x="530" y="290" width="40" height="40" stroke="black"/>
<rect x="530" y="410" width="40" height="40" stroke="black"/>
<rect x="530" y="130" width="40" height="40" stroke="black"/>
<rect x="530" y="330" width="40" height="40" stroke="black"/>
<rect x="530" y="450" width="40" height="40" stroke="black"/>
<rect x="530" y="530" width="40" height="40" stroke="black"/>
<rect x="530" y="170" width="40" height="40" stroke="black"/>
<rect x="530" y="370" width="40" height="40" stroke="black"/>
<rect x="530" y="490" width="40" height="40" stroke="black"/>
<rect x="530" y="570" width="40" height="40" stroke="black"/>
<rect x="530" y="210" width="40" height="40" stroke="black"/>
<rect x="530" y="410" width="40" height="40" stroke="black"/>
<rect x="170" y="50" width="40" height="40" stroke="black"/>
<rect x="170" y="250" width="40" height="40" stroke="black"/>
<rect x="170" y="370" width="40" height="40" stroke="black"/>
<rect x="170" y="90" width="40" height="40" stroke="black"/>
<rect x="170" y="290" width="40" height="40" stroke="black"/>
<rect x="170" y="410" width="40" height="40" stroke="black"/>
<rect x="170" y="130" width="40" height="40" stroke="black"/>
<rect x="170" y="330" width="40" height="40" stroke="black"/>
<rect x="170" y="450" width="40" height="40" stroke="black"/>
<rect x="170" y="530" width="40" height="40" stroke="black"/>
<rect x="170" y="170" width="40" height="40" stroke="black"/>
<rect x="170" y="370" width="40" height="40" stroke="black"/>
<rect x="170" y="490" width="40" height="40" stroke="black"/>
<rect x="170" y="570" width="40" height="40" stroke="black"/>
<rect x="170" y="210" width="40" height="40" stroke="black"/>
<rect x="170" y="410" width="40" height="40" stroke="black"/>
<rect x="330" y="50" width="40" height="40" stroke="black"/>
<rect x="330" y="250" width="40" height="40" stroke="black"/>
<rect x="330" y="370" width="40" height="40" stroke="black"/>
<rect x="330" y="90" width="40" height="40" stroke="black"/>
<rect x="330" y="290" width="40" height="40" stroke="black"/>
<rect x="330" y="410" width="40" height="40" stroke="black"/>
<rect x="330" y="130" width="40" height="40" stroke="black"/>
<rect x="330" y="330" width="40" height="40" stroke="black"/>
<rect x="330" y="450" width="40" height="40" stroke="black"/>
<rect x="330" y="530" width="40" height="40" stroke="black"/>
<rect x="330" y="170" width="40" height="40" stroke="black"/>
<rect x="330" y="370" width="40" height="40" stroke="black"/>
<rect x="330" y="490" width="40" height="40" stroke="black"/>
<rect x="330" y="570" width="40" height="40" stroke="black"/>
<rect x="330" y="210" width="40" height="40" stroke="black"/>
<rect x="330" y="410" width="40" height="40" stroke="black"/>
<rect x="490" y="50" width="40" height="40" stroke="black"/>
<rect x="490" y="250" width="40" height="40" stroke="black"/>
<rect x="490" y="370" width="40" height="40" stroke="black"/>
<rect x="490" y="90" width="40" height="40" stroke="black"/>
<rect x="490" y="290" width="40" height="40" stroke="black"/>
<rect x="490" y="410" width="40" height="40" stroke="black"/>
<rect x="490" y="130" width="40" height="40" stroke="black"/>
<rect x="490" y="330" width="40" height="40" stroke="black"/>
<rect x="490" y="450" width="40" height="40" stroke="black"/>
<rect x="490" y="530" width="40" height="40" stroke="black"/>
<rect x="490" y="170" width="40" height="40" stroke="black"/>
<rect x="490" y="370" width="40" height="40" stroke="black"/>
<rect x="490" y="490" width="40" height="40" stroke="black"/>
<rect x="490" y="570" width="40" height="40" stroke="black"/>
<rect x="490" y="210" width="40" height="40" stroke="black"/>
<rect x="490" y="410" width="40" height="40" stroke="black"/>
<rect x="570" y="50" width="40" height="40" stroke="black"/>
<rect x="570" y="250" width="40" height="40" stroke="black"/>
<rect x="570" y="370" width="40" height="40" stroke="black"/>
<rect x="570" y="90" width="40" height="40" stroke="black"/>
<rect x="570" y="290" width="40" height="40" stroke="black"/>
<rect x="570" y="410" width="40" height="40" stroke="black"/>
<rect x="570" y="130" width="40" height="40" stroke="black"/>
<rect x="570" y="330" width="40" height="40" stroke="black"/>
<rect x="570" y="450" width="40" height="40" stroke="black"/>
<rect x="570" y="530" width="40" height="40" stroke="black"/>
<rect x="570" y="170" width="40" height="40" stroke="black"/>
<rect x="570" y="370" width="40" height="40" stroke="black"/>
<rect x="570" y="490" width="40" height="40" stroke="black"/>
<rect x="570" y="570" width="40" height="40" stroke="black"/>
<rect x="570" y="210" width="40" height="40" stroke="black"/>
<rect x="570" y="410" width="40" height="40" stroke="black"/>
<path d="M49.634 630.256H51.2L56.654 643H54.638L53.36 639.85H47.294L46.034 643H44.018L49.634 630.256ZM52.73 638.338L50.354 632.488H50.318L47.906 638.338H52.73Z" fill="black"/>
<path d="M85.638 630.256H90.066C90.618 630.256 91.128 630.322 91.596 630.454C92.076 630.586 92.484 630.784 92.82 631.048C93.168 631.3 93.438 631.63 93.63 632.038C93.834 632.434 93.936 632.902 93.936 633.442C93.936 634.174 93.732 634.774 93.324 635.242C92.916 635.698 92.388 636.034 91.74 636.25V636.286C92.124 636.31 92.484 636.412 92.82 636.592C93.156 636.76 93.444 636.988 93.684 637.276C93.936 637.552 94.134 637.876 94.278 638.248C94.422 638.62 94.494 639.022 94.494 639.454C94.494 640.03 94.374 640.54 94.134 640.984C93.906 641.416 93.588 641.782 93.18 642.082C92.772 642.382 92.298 642.61 91.758 642.766C91.218 642.922 90.636 643 90.012 643H85.638V630.256ZM87.366 635.548H89.724C90.048 635.548 90.354 635.518 90.642 635.458C90.93 635.386 91.182 635.272 91.398 635.116C91.614 634.96 91.782 634.762 91.902 634.522C92.034 634.282 92.1 633.988 92.1 633.64C92.1 633.136 91.938 632.698 91.614 632.326C91.29 631.954 90.78 631.768 90.084 631.768H87.366V635.548ZM87.366 641.488H89.904C90.168 641.488 90.456 641.464 90.768 641.416C91.092 641.356 91.392 641.248 91.668 641.092C91.944 640.924 92.178 640.702 92.37 640.426C92.562 640.15 92.658 639.784 92.658 639.328C92.658 638.572 92.412 638.008 91.92 637.636C91.428 637.252 90.762 637.06 89.922 637.06H87.366V641.488Z" fill="black"/>
<path d="M134.512 633.01C134.152 632.542 133.696 632.182 133.144 631.93C132.592 631.678 132.022 631.552 131.434 631.552C130.714 631.552 130.06 631.69 129.472 631.966C128.896 632.23 128.398 632.596 127.978 633.064C127.57 633.532 127.252 634.084 127.024 634.72C126.796 635.344 126.682 636.016 126.682 636.736C126.682 637.408 126.79 638.044 127.006 638.644C127.222 639.244 127.534 639.772 127.942 640.228C128.35 640.684 128.848 641.044 129.436 641.308C130.024 641.572 130.69 641.704 131.434 641.704C132.166 641.704 132.808 641.554 133.36 641.254C133.912 640.954 134.38 640.534 134.764 639.994L136.222 641.092C136.126 641.224 135.958 641.416 135.718 641.668C135.478 641.908 135.16 642.154 134.764 642.406C134.368 642.646 133.888 642.856 133.324 643.036C132.772 643.228 132.13 643.324 131.398 643.324C130.39 643.324 129.478 643.132 128.662 642.748C127.858 642.364 127.168 641.86 126.592 641.236C126.028 640.612 125.596 639.91 125.296 639.13C124.996 638.338 124.846 637.54 124.846 636.736C124.846 635.752 125.008 634.846 125.332 634.018C125.656 633.178 126.106 632.458 126.682 631.858C127.27 631.246 127.972 630.772 128.788 630.436C129.604 630.1 130.504 629.932 131.488 629.932C132.328 629.932 133.15 630.094 133.954 630.418C134.77 630.742 135.436 631.24 135.952 631.912L134.512 633.01Z" fill="black"/>
<path d="M164.35 630.256H168.796C169.696 630.256 170.482 630.358 171.154 630.562C171.838 630.766 172.426 631.042 172.918 631.39C173.422 631.726 173.836 632.116 174.16 632.56C174.496 633.004 174.76 633.46 174.952 633.928C175.144 634.396 175.282 634.864 175.366 635.332C175.45 635.8 175.492 636.232 175.492 636.628C175.492 637.444 175.342 638.236 175.042 639.004C174.742 639.76 174.298 640.438 173.71 641.038C173.122 641.626 172.39 642.1 171.514 642.46C170.65 642.82 169.648 643 168.508 643H164.35V630.256ZM166.078 641.38H168.256C168.988 641.38 169.678 641.284 170.326 641.092C170.986 640.888 171.562 640.588 172.054 640.192C172.546 639.796 172.936 639.304 173.224 638.716C173.512 638.116 173.656 637.42 173.656 636.628C173.656 636.22 173.59 635.746 173.458 635.206C173.326 634.654 173.074 634.132 172.702 633.64C172.342 633.148 171.838 632.734 171.19 632.398C170.542 632.05 169.702 631.876 168.67 631.876H166.078V641.38Z" fill="black"/>
<path d="M205.638 630.256H213.864V631.876H207.366V635.674H213.414V637.294H207.366V641.38H214.188V643H205.638V630.256Z" fill="black"/>
<path d="M245.638 630.256H253.648V631.876H247.366V635.872H253.216V637.492H247.366V643H245.638V630.256Z" fill="black"/>
<path d="M406.638 630.256H408.366V635.764H408.51L414.144 630.256H416.556L410.4 636.142L416.97 643H414.45L408.51 636.628H408.366V643H406.638V630.256Z" fill="black"/>
<path d="M294.492 635.872V642.154C294.18 642.346 293.826 642.514 293.43 642.658C293.034 642.802 292.62 642.922 292.188 643.018C291.768 643.126 291.336 643.204 290.892 643.252C290.46 643.3 290.052 643.324 289.668 643.324C288.588 643.324 287.622 643.144 286.77 642.784C285.93 642.424 285.216 641.938 284.628 641.326C284.052 640.714 283.608 640.006 283.296 639.202C282.996 638.386 282.846 637.528 282.846 636.628C282.846 635.68 283.008 634.798 283.332 633.982C283.668 633.166 284.124 632.458 284.7 631.858C285.288 631.258 285.99 630.79 286.806 630.454C287.622 630.106 288.516 629.932 289.488 629.932C290.664 629.932 291.624 630.082 292.368 630.382C293.112 630.67 293.736 631.072 294.24 631.588L293.016 632.902C292.488 632.398 291.93 632.05 291.342 631.858C290.754 631.654 290.136 631.552 289.488 631.552C288.756 631.552 288.096 631.69 287.508 631.966C286.92 632.23 286.416 632.59 285.996 633.046C285.576 633.502 285.252 634.042 285.024 634.666C284.796 635.278 284.682 635.932 284.682 636.628C284.682 637.348 284.808 638.02 285.06 638.644C285.312 639.256 285.66 639.79 286.104 640.246C286.548 640.702 287.07 641.062 287.67 641.326C288.27 641.578 288.924 641.704 289.632 641.704C290.244 641.704 290.82 641.65 291.36 641.542C291.912 641.422 292.38 641.254 292.764 641.038V637.492H289.938V635.872H294.492Z" fill="black"/>
<path d="M447.638 630.256H449.366V641.38H455.216V643H447.638V630.256Z" fill="black"/>
<path d="M324.638 630.256H326.366V635.548H332.972V630.256H334.7V643H332.972V637.168H326.366V643H324.638V630.256Z" fill="black"/>
<path d="M483.512 630.256H486.086L490.136 639.904H490.208L494.222 630.256H496.796V643H495.068V632.524H495.032L490.73 643H489.578L485.276 632.524H485.24V643H483.512V630.256Z" fill="black"/>
<path d="M368.638 630.256H370.366V643H368.638V630.256Z" fill="black"/>
<path d="M524.638 630.256H526.906L533.926 640.732H533.962V630.256H535.69V643H533.494L526.402 632.524H526.366V643H524.638V630.256Z" fill="black"/>
<path d="M571 643.216C574.834 643.216 577.39 640.57 577.39 636.34C577.39 632.11 574.762 629.554 571 629.554C567.238 629.554 564.61 632.11 564.61 636.34C564.61 640.57 567.256 643.216 571 643.216ZM571 641.758C568.21 641.758 566.32 639.652 566.32 636.34C566.32 633.046 568.192 631.012 571 631.012C573.808 631.012 575.68 633.046 575.68 636.34C575.68 639.652 573.808 641.758 571 641.758Z" fill="black"/>
<path d="M605.638 630.256H610.12C610.936 630.256 611.608 630.37 612.136 630.598C612.664 630.814 613.078 631.096 613.378 631.444C613.69 631.78 613.906 632.164 614.026 632.596C614.146 633.016 614.206 633.424 614.206 633.82C614.206 634.216 614.146 634.63 614.026 635.062C613.906 635.482 613.69 635.866 613.378 636.214C613.078 636.55 612.664 636.832 612.136 637.06C611.608 637.276 610.936 637.384 610.12 637.384H607.366V643H605.638V630.256ZM607.366 635.872H609.634C609.97 635.872 610.3 635.848 610.624 635.8C610.96 635.74 611.254 635.638 611.506 635.494C611.77 635.35 611.98 635.146 612.136 634.882C612.292 634.606 612.37 634.252 612.37 633.82C612.37 633.388 612.292 633.04 612.136 632.776C611.98 632.5 611.77 632.29 611.506 632.146C611.254 632.002 610.96 631.906 610.624 631.858C610.3 631.798 609.97 631.768 609.634 631.768H607.366V635.872Z" fill="black"/>
<path d="M22.86 604.236L20.52 606.396L19.512 605.19L23.058 602.256H24.588V615H22.86V604.236Z" fill="black"/>
<path d="M21.96 407.188H22.032C22.428 406.996 22.896 406.9 23.436 406.9C23.892 406.9 24.354 406.978 24.822 407.134C25.29 407.29 25.71 407.536 26.082 407.872C26.466 408.196 26.778 408.616 27.018 409.132C27.258 409.636 27.378 410.236 27.378 410.932C27.378 411.64 27.258 412.264 27.018 412.804C26.79 413.332 26.478 413.776 26.082 414.136C25.686 414.496 25.224 414.766 24.696 414.946C24.168 415.126 23.604 415.216 23.004 415.216C22.404 415.216 21.84 415.12 21.312 414.928C20.784 414.736 20.322 414.46 19.926 414.1C19.53 413.74 19.212 413.308 18.972 412.804C18.744 412.3 18.63 411.736 18.63 411.112C18.63 410.716 18.66 410.356 18.72 410.032C18.78 409.708 18.864 409.402 18.972 409.114C19.092 408.814 19.23 408.526 19.386 408.25C19.542 407.962 19.716 407.662 19.908 407.35L23.13 402.256H25.164L21.96 407.188ZM20.358 411.058C20.358 411.442 20.418 411.796 20.538 412.12C20.67 412.444 20.85 412.726 21.078 412.966C21.318 413.194 21.6 413.374 21.924 413.506C22.248 413.638 22.608 413.704 23.004 413.704C23.4 413.704 23.76 413.638 24.084 413.506C24.408 413.374 24.684 413.194 24.912 412.966C25.152 412.726 25.332 412.444 25.452 412.12C25.584 411.796 25.65 411.442 25.65 411.058C25.65 410.674 25.584 410.32 25.452 409.996C25.332 409.672 25.152 409.396 24.912 409.168C24.684 408.928 24.408 408.742 24.084 408.61C23.76 408.478 23.4 408.412 23.004 408.412C22.608 408.412 22.248 408.478 21.924 408.61C21.6 408.742 21.318 408.928 21.078 409.168C20.85 409.396 20.67 409.672 20.538 409.996C20.418 410.32 20.358 410.674 20.358 411.058Z" fill="black"/>
<path d="M18.828 573.164L23.94 568.088C24.12 567.92 24.294 567.74 24.462 567.548C24.63 567.344 24.78 567.134 24.912 566.918C25.044 566.702 25.146 566.474 25.218 566.234C25.302 565.994 25.344 565.742 25.344 565.478C25.344 565.166 25.284 564.884 25.164 564.632C25.056 564.38 24.9 564.17 24.696 564.002C24.504 563.822 24.27 563.684 23.994 563.588C23.73 563.492 23.448 563.444 23.148 563.444C22.524 563.444 22.008 563.618 21.6 563.966C21.192 564.314 20.934 564.794 20.826 565.406L18.954 565.244C19.038 564.68 19.2 564.194 19.44 563.786C19.692 563.366 19.998 563.018 20.358 562.742C20.73 562.466 21.15 562.262 21.618 562.13C22.098 561.998 22.614 561.932 23.166 561.932C23.718 561.932 24.234 562.01 24.714 562.166C25.206 562.31 25.632 562.532 25.992 562.832C26.364 563.12 26.652 563.486 26.856 563.93C27.072 564.362 27.18 564.872 27.18 565.46C27.18 565.88 27.114 566.276 26.982 566.648C26.862 567.008 26.7 567.35 26.496 567.674C26.292 567.998 26.058 568.304 25.794 568.592C25.53 568.88 25.254 569.162 24.966 569.438L20.772 573.488H27.18V575H18.828V573.164Z" fill="black"/>
<path d="M24.912 363.768H18.756V362.256H26.766V363.732L21.69 375H19.746L24.912 363.768Z" fill="black"/>
<path d="M20.646 531.886C20.85 532.498 21.12 532.954 21.456 533.254C21.804 533.554 22.314 533.704 22.986 533.704C23.322 533.704 23.634 533.65 23.922 533.542C24.222 533.422 24.486 533.266 24.714 533.074C24.942 532.87 25.122 532.63 25.254 532.354C25.386 532.066 25.452 531.748 25.452 531.4C25.452 530.872 25.338 530.452 25.11 530.14C24.894 529.816 24.612 529.576 24.264 529.42C23.916 529.252 23.532 529.144 23.112 529.096C22.692 529.048 22.278 529.024 21.87 529.024V527.512C22.53 527.512 23.07 527.47 23.49 527.386C23.91 527.29 24.24 527.158 24.48 526.99C24.72 526.822 24.888 526.612 24.984 526.36C25.08 526.108 25.128 525.826 25.128 525.514C25.128 524.83 24.924 524.314 24.516 523.966C24.108 523.618 23.598 523.444 22.986 523.444C22.518 523.444 22.092 523.582 21.708 523.858C21.336 524.122 21.054 524.476 20.862 524.92L19.098 524.326C19.434 523.51 19.944 522.91 20.628 522.526C21.324 522.13 22.098 521.932 22.95 521.932C23.466 521.932 23.958 522.004 24.426 522.148C24.906 522.28 25.326 522.49 25.686 522.778C26.046 523.066 26.328 523.432 26.532 523.876C26.748 524.308 26.856 524.818 26.856 525.406C26.856 526.078 26.652 526.678 26.244 527.206C25.848 527.734 25.326 528.094 24.678 528.286V528.322C25.074 528.394 25.428 528.526 25.74 528.718C26.052 528.91 26.316 529.15 26.532 529.438C26.748 529.726 26.91 530.05 27.018 530.41C27.126 530.758 27.18 531.13 27.18 531.526C27.18 532.138 27.06 532.678 26.82 533.146C26.592 533.602 26.28 533.986 25.884 534.298C25.5 534.598 25.05 534.826 24.534 534.982C24.03 535.138 23.496 535.216 22.932 535.216C21.96 535.216 21.102 534.994 20.358 534.55C19.626 534.106 19.116 533.404 18.828 532.444L20.646 531.886Z" fill="black"/>
<path d="M23.004 335.216C22.428 335.216 21.882 335.132 21.366 334.964C20.862 334.784 20.424 334.526 20.052 334.19C19.68 333.854 19.386 333.446 19.17 332.966C18.954 332.486 18.846 331.946 18.846 331.346C18.846 330.95 18.906 330.584 19.026 330.248C19.158 329.912 19.332 329.612 19.548 329.348C19.764 329.072 20.016 328.844 20.304 328.664C20.604 328.472 20.928 328.328 21.276 328.232V328.178C21.036 328.118 20.796 328.01 20.556 327.854C20.316 327.698 20.1 327.5 19.908 327.26C19.728 327.02 19.578 326.732 19.458 326.396C19.338 326.048 19.278 325.652 19.278 325.208C19.278 324.728 19.374 324.296 19.566 323.912C19.77 323.516 20.04 323.18 20.376 322.904C20.724 322.628 21.12 322.418 21.564 322.274C22.02 322.118 22.5 322.04 23.004 322.04C23.508 322.04 23.982 322.118 24.426 322.274C24.882 322.418 25.278 322.628 25.614 322.904C25.962 323.18 26.232 323.516 26.424 323.912C26.628 324.296 26.73 324.728 26.73 325.208C26.73 325.652 26.67 326.048 26.55 326.396C26.43 326.732 26.274 327.02 26.082 327.26C25.902 327.5 25.692 327.698 25.452 327.854C25.212 328.01 24.972 328.118 24.732 328.178V328.232C25.08 328.328 25.398 328.472 25.686 328.664C25.986 328.844 26.244 329.072 26.46 329.348C26.676 329.612 26.844 329.912 26.964 330.248C27.096 330.584 27.162 330.95 27.162 331.346C27.162 331.946 27.054 332.486 26.838 332.966C26.622 333.446 26.328 333.854 25.956 334.19C25.584 334.526 25.14 334.784 24.624 334.964C24.12 335.132 23.58 335.216 23.004 335.216ZM21.006 325.46C21.006 325.712 21.048 325.958 21.132 326.198C21.228 326.438 21.36 326.654 21.528 326.846C21.696 327.026 21.9 327.176 22.14 327.296C22.392 327.416 22.68 327.476 23.004 327.476C23.34 327.476 23.628 327.422 23.868 327.314C24.12 327.194 24.33 327.044 24.498 326.864C24.666 326.672 24.792 326.456 24.876 326.216C24.96 325.976 25.002 325.724 25.002 325.46C25.002 324.872 24.816 324.392 24.444 324.02C24.084 323.636 23.604 323.444 23.004 323.444C22.452 323.444 21.978 323.63 21.582 324.002C21.198 324.374 21.006 324.86 21.006 325.46ZM23.004 333.704C23.724 333.704 24.306 333.488 24.75 333.056C25.206 332.612 25.434 332.042 25.434 331.346C25.434 330.962 25.368 330.626 25.236 330.338C25.116 330.038 24.942 329.792 24.714 329.6C24.498 329.396 24.24 329.246 23.94 329.15C23.652 329.042 23.34 328.988 23.004 328.988C22.296 329 21.714 329.228 21.258 329.672C20.802 330.104 20.574 330.662 20.574 331.346C20.574 331.718 20.64 332.054 20.772 332.354C20.904 332.642 21.078 332.888 21.294 333.092C21.522 333.284 21.78 333.434 22.068 333.542C22.368 333.65 22.68 333.704 23.004 333.704Z" fill="black"/>
<path d="M24.048 492.192H18.612V490.428L23.688 482.256H25.776V490.68H27.576V492.192H25.776V495H24.048V492.192ZM24.048 484.308H24.012L20.124 490.68H24.048V484.308Z" fill="black"/>
<path d="M24.048 290.068H23.976C23.58 290.26 23.112 290.356 22.572 290.356C22.116 290.356 21.654 290.278 21.186 290.122C20.718 289.966 20.292 289.726 19.908 289.402C19.536 289.066 19.23 288.646 18.99 288.142C18.75 287.626 18.63 287.02 18.63 286.324C18.63 285.628 18.744 285.016 18.972 284.488C19.212 283.948 19.53 283.498 19.926 283.138C20.322 282.778 20.784 282.508 21.312 282.328C21.84 282.136 22.404 282.04 23.004 282.04C23.604 282.04 24.168 282.136 24.696 282.328C25.224 282.52 25.686 282.796 26.082 283.156C26.478 283.516 26.79 283.948 27.018 284.452C27.258 284.956 27.378 285.52 27.378 286.144C27.378 286.54 27.348 286.9 27.288 287.224C27.228 287.548 27.138 287.86 27.018 288.16C26.91 288.448 26.778 288.736 26.622 289.024C26.466 289.312 26.292 289.606 26.1 289.906L22.878 295H20.844L24.048 290.068ZM25.65 286.198C25.65 285.814 25.584 285.46 25.452 285.136C25.332 284.812 25.152 284.536 24.912 284.308C24.684 284.068 24.408 283.882 24.084 283.75C23.76 283.618 23.4 283.552 23.004 283.552C22.608 283.552 22.248 283.618 21.924 283.75C21.6 283.882 21.318 284.068 21.078 284.308C20.85 284.536 20.67 284.812 20.538 285.136C20.418 285.46 20.358 285.814 20.358 286.198C20.358 286.582 20.418 286.936 20.538 287.26C20.67 287.584 20.85 287.866 21.078 288.106C21.318 288.334 21.6 288.514 21.924 288.646C22.248 288.778 22.608 288.844 23.004 288.844C23.4 288.844 23.76 288.778 24.084 288.646C24.408 288.514 24.684 288.334 24.912 288.106C25.152 287.866 25.332 287.584 25.452 287.26C25.584 286.936 25.65 286.582 25.65 286.198Z" fill="black"/>
<path d="M26.478 443.876H21.312L21.258 447.062C21.342 447.026 21.462 446.99 21.618 446.954C21.774 446.918 21.93 446.888 22.086 446.864C22.254 446.84 22.416 446.822 22.572 446.81C22.728 446.798 22.86 446.792 22.968 446.792C23.568 446.792 24.108 446.894 24.588 447.098C25.08 447.302 25.5 447.59 25.848 447.962C26.196 448.334 26.46 448.778 26.64 449.294C26.832 449.81 26.928 450.38 26.928 451.004C26.928 451.64 26.808 452.216 26.568 452.732C26.34 453.248 26.022 453.692 25.614 454.064C25.206 454.436 24.732 454.724 24.192 454.928C23.652 455.12 23.07 455.216 22.446 455.216C21.582 455.216 20.802 454.994 20.106 454.55C19.41 454.106 18.912 453.47 18.612 452.642L20.358 452.048C20.586 452.636 20.892 453.062 21.276 453.326C21.66 453.578 22.14 453.704 22.716 453.704C23.052 453.704 23.37 453.644 23.67 453.524C23.982 453.404 24.246 453.236 24.462 453.02C24.69 452.792 24.87 452.516 25.002 452.192C25.134 451.868 25.2 451.502 25.2 451.094C25.2 450.158 24.912 449.462 24.336 449.006C23.772 448.538 23.034 448.304 22.122 448.304C21.798 448.304 21.384 448.364 20.88 448.484C20.388 448.592 19.926 448.754 19.494 448.97L19.638 442.256H26.478V443.876Z" fill="black"/>
<path d="M16.86 244.236L14.52 246.396L13.512 245.19L17.058 242.256H18.588V255H16.86V244.236ZM22.614 248.628C22.614 248.16 22.638 247.674 22.686 247.17C22.734 246.666 22.818 246.174 22.938 245.694C23.07 245.202 23.238 244.734 23.442 244.29C23.658 243.846 23.928 243.462 24.252 243.138C24.588 242.802 24.978 242.538 25.422 242.346C25.878 242.142 26.406 242.04 27.006 242.04C27.606 242.04 28.128 242.142 28.572 242.346C29.028 242.538 29.418 242.802 29.742 243.138C30.078 243.462 30.348 243.846 30.552 244.29C30.768 244.734 30.936 245.202 31.056 245.694C31.188 246.174 31.278 246.666 31.326 247.17C31.374 247.674 31.398 248.16 31.398 248.628C31.398 249.3 31.338 250.02 31.218 250.788C31.098 251.556 30.876 252.27 30.552 252.93C30.228 253.59 29.778 254.136 29.202 254.568C28.638 255 27.906 255.216 27.006 255.216C26.106 255.216 25.368 255 24.792 254.568C24.228 254.136 23.784 253.59 23.46 252.93C23.136 252.27 22.914 251.556 22.794 250.788C22.674 250.02 22.614 249.3 22.614 248.628ZM24.342 248.628C24.342 249.048 24.366 249.546 24.414 250.122C24.474 250.698 24.594 251.256 24.774 251.796C24.954 252.324 25.218 252.774 25.566 253.146C25.926 253.518 26.406 253.704 27.006 253.704C27.606 253.704 28.08 253.518 28.428 253.146C28.788 252.774 29.058 252.324 29.238 251.796C29.418 251.256 29.532 250.698 29.58 250.122C29.64 249.546 29.67 249.048 29.67 248.628C29.67 248.34 29.658 248.016 29.634 247.656C29.622 247.284 29.58 246.912 29.508 246.54C29.448 246.156 29.358 245.79 29.238 245.442C29.118 245.082 28.956 244.764 28.752 244.488C28.56 244.2 28.32 243.972 28.032 243.804C27.744 243.636 27.402 243.552 27.006 243.552C26.61 243.552 26.268 243.636 25.98 243.804C25.692 243.972 25.446 244.2 25.242 244.488C25.05 244.764 24.894 245.082 24.774 245.442C24.654 245.79 24.558 246.156 24.486 246.54C24.426 246.912 24.384 247.284 24.36 247.656C24.348 248.016 24.342 248.34 24.342 248.628Z" fill="black"/>
<path d="M16.86 204.236L14.52 206.396L13.512 205.19L17.058 202.256H18.588V215H16.86V204.236ZM26.862 204.236L24.522 206.396L23.514 205.19L27.06 202.256H28.59V215H26.862V204.236Z" fill="black"/>
<path d="M16.86 164.236L14.52 166.396L13.512 165.19L17.058 162.256H18.588V175H16.86V164.236ZM22.83 173.164L27.942 168.088C28.122 167.92 28.296 167.74 28.464 167.548C28.632 167.344 28.782 167.134 28.914 166.918C29.046 166.702 29.148 166.474 29.22 166.234C29.304 165.994 29.346 165.742 29.346 165.478C29.346 165.166 29.286 164.884 29.166 164.632C29.058 164.38 28.902 164.17 28.698 164.002C28.506 163.822 28.272 163.684 27.996 163.588C27.732 163.492 27.45 163.444 27.15 163.444C26.526 163.444 26.01 163.618 25.602 163.966C25.194 164.314 24.936 164.794 24.828 165.406L22.956 165.244C23.04 164.68 23.202 164.194 23.442 163.786C23.694 163.366 24 163.018 24.36 162.742C24.732 162.466 25.152 162.262 25.62 162.13C26.1 161.998 26.616 161.932 27.168 161.932C27.72 161.932 28.236 162.01 28.716 162.166C29.208 162.31 29.634 162.532 29.994 162.832C30.366 163.12 30.654 163.486 30.858 163.93C31.074 164.362 31.182 164.872 31.182 165.46C31.182 165.88 31.116 166.276 30.984 166.648C30.864 167.008 30.702 167.35 30.498 167.674C30.294 167.998 30.06 168.304 29.796 168.592C29.532 168.88 29.256 169.162 28.968 169.438L24.774 173.488H31.182V175H22.83V173.164Z" fill="black"/>
<path d="M16.86 124.236L14.52 126.396L13.512 125.19L17.058 122.256H18.588V135H16.86V124.236ZM24.648 131.886C24.852 132.498 25.122 132.954 25.458 133.254C25.806 133.554 26.316 133.704 26.988 133.704C27.324 133.704 27.636 133.65 27.924 133.542C28.224 133.422 28.488 133.266 28.716 133.074C28.944 132.87 29.124 132.63 29.256 132.354C29.388 132.066 29.454 131.748 29.454 131.4C29.454 130.872 29.34 130.452 29.112 130.14C28.896 129.816 28.614 129.576 28.266 129.42C27.918 129.252 27.534 129.144 27.114 129.096C26.694 129.048 26.28 129.024 25.872 129.024V127.512C26.532 127.512 27.072 127.47 27.492 127.386C27.912 127.29 28.242 127.158 28.482 126.99C28.722 126.822 28.89 126.612 28.986 126.36C29.082 126.108 29.13 125.826 29.13 125.514C29.13 124.83 28.926 124.314 28.518 123.966C28.11 123.618 27.6 123.444 26.988 123.444C26.52 123.444 26.094 123.582 25.71 123.858C25.338 124.122 25.056 124.476 24.864 124.92L23.1 124.326C23.436 123.51 23.946 122.91 24.63 122.526C25.326 122.13 26.1 121.932 26.952 121.932C27.468 121.932 27.96 122.004 28.428 122.148C28.908 122.28 29.328 122.49 29.688 122.778C30.048 123.066 30.33 123.432 30.534 123.876C30.75 124.308 30.858 124.818 30.858 125.406C30.858 126.078 30.654 126.678 30.246 127.206C29.85 127.734 29.328 128.094 28.68 128.286V128.322C29.076 128.394 29.43 128.526 29.742 128.718C30.054 128.91 30.318 129.15 30.534 129.438C30.75 129.726 30.912 130.05 31.02 130.41C31.128 130.758 31.182 131.13 31.182 131.526C31.182 132.138 31.062 132.678 30.822 133.146C30.594 133.602 30.282 133.986 29.886 134.298C29.502 134.598 29.052 134.826 28.536 134.982C28.032 135.138 27.498 135.216 26.934 135.216C25.962 135.216 25.104 134.994 24.36 134.55C23.628 134.106 23.118 133.404 22.83 132.444L24.648 131.886Z" fill="black"/>
<path d="M16.86 84.236L14.52 86.396L13.512 85.19L17.058 82.256H18.588V95H16.86V84.236ZM28.05 92.192H22.614V90.428L27.69 82.256H29.778V90.68H31.578V92.192H29.778V95H28.05V92.192ZM28.05 84.308H28.014L24.126 90.68H28.05V84.308Z" fill="black"/>
<path d="M16.86 44.236L14.52 46.396L13.512 45.19L17.058 42.256H18.588V55H16.86V44.236ZM30.48 43.876H25.314L25.26 47.062C25.344 47.026 25.464 46.99 25.62 46.954C25.776 46.918 25.932 46.888 26.088 46.864C26.256 46.84 26.418 46.822 26.574 46.81C26.73 46.798 26.862 46.792 26.97 46.792C27.57 46.792 28.11 46.894 28.59 47.098C29.082 47.302 29.502 47.59 29.85 47.962C30.198 48.334 30.462 48.778 30.642 49.294C30.834 49.81 30.93 50.38 30.93 51.004C30.93 51.64 30.81 52.216 30.57 52.732C30.342 53.248 30.024 53.692 29.616 54.064C29.208 54.436 28.734 54.724 28.194 54.928C27.654 55.12 27.072 55.216 26.448 55.216C25.584 55.216 24.804 54.994 24.108 54.55C23.412 54.106 22.914 53.47 22.614 52.642L24.36 52.048C24.588 52.636 24.894 53.062 25.278 53.326C25.662 53.578 26.142 53.704 26.718 53.704C27.054 53.704 27.372 53.644 27.672 53.524C27.984 53.404 28.248 53.236 28.464 53.02C28.692 52.792 28.872 52.516 29.004 52.192C29.136 51.868 29.202 51.502 29.202 51.094C29.202 50.158 28.914 49.462 28.338 49.006C27.774 48.538 27.036 48.304 26.124 48.304C25.8 48.304 25.386 48.364 24.882 48.484C24.39 48.592 23.928 48.754 23.496 48.97L23.64 42.256H30.48V43.876Z" fill="black"/>
<circle cx="170" cy="170" r="5" fill="black"/>
<circle cx="170" cy="490" r="5" fill="black"/>
<circle cx="490" cy="170" r="5" fill="black"/>
<circle cx="490" cy="490" r="5" fill="black"/>
<circle cx="330" cy="330" r="5" fill="black"/>
</svg>
