<svg width="640" height="640" viewBox="0 0 640 640" fill="none" xmlns="http://www.w3.org/2000/svg">
<rect width="640" height="640" fill="#B9967C"/>
<rect x="40" y="40" width="40" height="40" stroke="black"/>
<rect x="40" y="240" width="40" height="40" stroke="black"/>
<rect x="40" y="360" width="40" height="40" stroke="black"/>
<rect x="40" y="80" width="40" height="40" stroke="black"/>
<rect x="40" y="280" width="40" height="40" stroke="black"/>
<rect x="40" y="400" width="40" height="40" stroke="black"/>
<rect x="40" y="120" width="40" height="40" stroke="black"/>
<rect x="40" y="320" width="40" height="40" stroke="black"/>
<rect x="40" y="440" width="40" height="40" stroke="black"/>
<rect x="40" y="520" width="40" height="40" stroke="black"/>
<rect x="40" y="160" width="40" height="40" stroke="black"/>
<rect x="40" y="360" width="40" height="40" stroke="black"/>
<rect x="40" y="480" width="40" height="40" stroke="black"/>
<rect x="40" y="560" width="40" height="40" stroke="black"/>
<rect x="40" y="200" width="40" height="40" stroke="black"/>
<rect x="40" y="400" width="40" height="40" stroke="black"/>
<rect x="200" y="40" width="40" height="40" stroke="black"/>
<rect x="200" y="240" width="40" height="40" stroke="black"/>
<rect x="200" y="360" width="40" height="40" stroke="black"/>
<rect x="200" y="80" width="40" height="40" stroke="black"/>
<rect x="200" y="280" width="40" height="40" stroke="black"/>
<rect x="200" y="400" width="40" height="40" stroke="black"/>
<rect x="200" y="120" width="40" height="40" stroke="black"/>
<rect x="200" y="320" width="40" height="40" stroke="black"/>
<rect x="200" y="440" width="40" height="40" stroke="black"/>
<rect x="200" y="520" width="40" height="40" stroke="black"/>
<rect x="200" y="160" width="40" height="40" stroke="black"/>
<rect x="200" y="360" width="40" height="40" stroke="black"/>
<rect x="200" y="480" width="40" height="40" stroke="black"/>
<rect x="200" y="560" width="40" height="40" stroke="black"/>
<rect x="200" y="200" width="40" height="40" stroke="black"/>
<rect x="200" y="400" width="40" height="40" stroke="black"/>
<rect x="360" y="40" width="40" height="40" stroke="black"/>
<rect x="360" y="240" width="40" height="40" stroke="black"/>
<rect x="360" y="360" width="40" height="40" stroke="black"/>
<rect x="360" y="80" width="40" height="40" stroke="black"/>
<rect x="360" y="280" width="40" height="40" stroke="black"/>
<rect x="360" y="400" width="40" height="40" stroke="black"/>
<rect x="360" y="120" width="40" height="40" stroke="black"/>
<rect x="360" y="320" width="40" height="40" stroke="black"/>
<rect x="360" y="440" width="40" height="40" stroke="black"/>
<rect x="360" y="520" width="40" height="40" stroke="black"/>
<rect x="360" y="160" width="40" height="40" stroke="black"/>
<rect x="360" y="360" width="40" height="40" stroke="black"/>
<rect x="360" y="480" width="40" height="40" stroke="black"/>
<rect x="360" y="560" width="40" height="40" stroke="black"/>
<rect x="360" y="200" width="40" height="40" stroke="black"/>
<rect x="360" y="400" width="40" height="40" stroke="black"/>
<rect x="80" y="40" width="40" height="40" stroke="black"/>
<rect x="80" y="240" width="40" height="40" stroke="black"/>
<rect x="80" y="360" width="40" height="40" stroke="black"/>
<rect x="80" y="80" width="40" height="40" stroke="black"/>
<rect x="80" y="280" width="40" height="40" stroke="black"/>
<rect x="80" y="400" width="40" height="40" stroke="black"/>
<rect x="80" y="120" width="40" height="40" stroke="black"/>
<rect x="80" y="320" width="40" height="40" stroke="black"/>
<rect x="80" y="440" width="40" height="40" stroke="black"/>
<rect x="80" y="520" width="40" height="40" stroke="black"/>
<rect x="80" y="160" width="40" height="40" stroke="black"/>
<rect x="80" y="360" width="40" height="40" stroke="black"/>
<rect x="80" y="480" width="40" height="40" stroke="black"/>
<rect x="80" y="560" width="40" height="40" stroke="black"/>
<rect x="80" y="200" width="40" height="40" stroke="black"/>
<rect x="80" y="400" width="40" height="40" stroke="black"/>
<rect x="240" y="40" width="40" height="40" stroke="black"/>
<rect x="240" y="240" width="40" height="40" stroke="black"/>
<rect x="240" y="360" width="40" height="40" stroke="black"/>
<rect x="240" y="80" width="40" height="40" stroke="black"/>
<rect x="240" y="280" width="40" height="40" stroke="black"/>
<rect x="240" y="400" width="40" height="40" stroke="black"/>
<rect x="240" y="120" width="40" height="40" stroke="black"/>
<rect x="240" y="320" width="40" height="40" stroke="black"/>
<rect x="240" y="440" width="40" height="40" stroke="black"/>
<rect x="240" y="520" width="40" height="40" stroke="black"/>
<rect x="240" y="160" width="40" height="40" stroke="black"/>
<rect x="240" y="360" width="40" height="40" stroke="black"/>
<rect x="240" y="480" width="40" height="40" stroke="black"/>
<rect x="240" y="560" width="40" height="40" stroke="black"/>
<rect x="240" y="200" width="40" height="40" stroke="black"/>
<rect x="240" y="400" width="40" height="40" stroke="black"/>
<rect x="400" y="40" width="40" height="40" stroke="black"/>
<rect x="400" y="240" width="40" height="40" stroke="black"/>
<rect x="400" y="360" width="40" height="40" stroke="black"/>
<rect x="400" y="80" width="40" height="40" stroke="black"/>
<rect x="400" y="280" width="40" height="40" stroke="black"/>
<rect x="400" y="400" width="40" height="40" stroke="black"/>
<rect x="400" y="120" width="40" height="40" stroke="black"/>
<rect x="400" y="320" width="40" height="40" stroke="black"/>
<rect x="400" y="440" width="40" height="40" stroke="black"/>
<rect x="400" y="520" width="40" height="40" stroke="black"/>
<rect x="400" y="160" width="40" height="40" stroke="black"/>
<rect x="400" y="360" width="40" height="40" stroke="black"/>
<rect x="400" y="480" width="40" height="40" stroke="black"/>
<rect x="400" y="560" width="40" height="40" stroke="black"/>
<rect x="400" y="200" width="40" height="40" stroke="black"/>
<rect x="400" y="400" width="40" height="40" stroke="black"/>
<rect x="120" y="40" width="40" height="40" stroke="black"/>
<rect x="120" y="240" width="40" height="40" stroke="black"/>
<rect x="120" y="360" width="40" height="40" stroke="black"/>
<rect x="120" y="80" width="40" height="40" stroke="black"/>
<rect x="120" y="280" width="40" height="40" stroke="black"/>
<rect x="120" y="400" width="40" height="40" stroke="black"/>
<rect x="120" y="120" width="40" height="40" stroke="black"/>
<rect x="120" y="320" width="40" height="40" stroke="black"/>
<rect x="120" y="440" width="40" height="40" stroke="black"/>
<rect x="120" y="520" width="40" height="40" stroke="black"/>
<rect x="120" y="160" width="40" height="40" stroke="black"/>
<rect x="120" y="360" width="40" height="40" stroke="black"/>
<rect x="120" y="480" width="40" height="40" stroke="black"/>
<rect x="120" y="560" width="40" height="40" stroke="black"/>
<rect x="120" y="200" width="40" height="40" stroke="black"/>
<rect x="120" y="400" width="40" height="40" stroke="black"/>
<rect x="280" y="40" width="40" height="40" stroke="black"/>
<rect x="280" y="240" width="40" height="40" stroke="black"/>
<rect x="280" y="360" width="40" height="40" stroke="black"/>
<rect x="280" y="80" width="40" height="40" stroke="black"/>
<rect x="280" y="280" width="40" height="40" stroke="black"/>
<rect x="280" y="400" width="40" height="40" stroke="black"/>
<rect x="280" y="120" width="40" height="40" stroke="black"/>
<rect x="280" y="320" width="40" height="40" stroke="black"/>
<rect x="280" y="440" width="40" height="40" stroke="black"/>
<rect x="280" y="520" width="40" height="40" stroke="black"/>
<rect x="280" y="160" width="40" height="40" stroke="black"/>
<rect x="280" y="360" width="40" height="40" stroke="black"/>
<rect x="280" y="480" width="40" height="40" stroke="black"/>
<rect x="280" y="560" width="40" height="40" stroke="black"/>
<rect x="280" y="200" width="40" height="40" stroke="black"/>
<rect x="280" y="400" width="40" height="40" stroke="black"/>
<rect x="440" y="40" width="40" height="40" stroke="black"/>
<rect x="440" y="240" width="40" height="40" stroke="black"/>
<rect x="440" y="360" width="40" height="40" stroke="black"/>
<rect x="440" y="80" width="40" height="40" stroke="black"/>
<rect x="440" y="280" width="40" height="40" stroke="black"/>
<rect x="440" y="400" width="40" height="40" stroke="black"/>
<rect x="440" y="120" width="40" height="40" stroke="black"/>
<rect x="440" y="320" width="40" height="40" stroke="black"/>
<rect x="440" y="440" width="40" height="40" stroke="black"/>
<rect x="440" y="520" width="40" height="40" stroke="black"/>
<rect x="440" y="160" width="40" height="40" stroke="black"/>
<rect x="440" y="360" width="40" height="40" stroke="black"/>
<rect x="440" y="480" width="40" height="40" stroke="black"/>
<rect x="440" y="560" width="40" height="40" stroke="black"/>
<rect x="440" y="200" width="40" height="40" stroke="black"/>
<rect x="440" y="400" width="40" height="40" stroke="black"/>
<rect x="520" y="40" width="40" height="40" stroke="black"/>
<rect x="520" y="240" width="40" height="40" stroke="black"/>
<rect x="520" y="360" width="40" height="40" stroke="black"/>
<rect x="520" y="80" width="40" height="40" stroke="black"/>
<rect x="520" y="280" width="40" height="40" stroke="black"/>
<rect x="520" y="400" width="40" height="40" stroke="black"/>
<rect x="520" y="120" width="40" height="40" stroke="black"/>
<rect x="520" y="320" width="40" height="40" stroke="black"/>
<rect x="520" y="440" width="40" height="40" stroke="black"/>
<rect x="520" y="520" width="40" height="40" stroke="black"/>
<rect x="520" y="160" width="40" height="40" stroke="black"/>
<rect x="520" y="360" width="40" height="40" stroke="black"/>
<rect x="520" y="480" width="40" height="40" stroke="black"/>
<rect x="520" y="560" width="40" height="40" stroke="black"/>
<rect x="520" y="200" width="40" height="40" stroke="black"/>
<rect x="520" y="400" width="40" height="40" stroke="black"/>
<rect x="160" y="40" width="40" height="40" stroke="black"/>
<rect x="160" y="240" width="40" height="40" stroke="black"/>
<rect x="160" y="360" width="40" height="40" stroke="black"/>
<rect x="160" y="80" width="40" height="40" stroke="black"/>
<rect x="160" y="280" width="40" height="40" stroke="black"/>
<rect x="160" y="400" width="40" height="40" stroke="black"/>
<rect x="160" y="120" width="40" height="40" stroke="black"/>
<rect x="160" y="320" width="40" height="40" stroke="black"/>
<rect x="160" y="440" width="40" height="40" stroke="black"/>
<rect x="160" y="520" width="40" height="40" stroke="black"/>
<rect x="160" y="160" width="40" height="40" stroke="black"/>
<rect x="160" y="360" width="40" height="40" stroke="black"/>
<rect x="160" y="480" width="40" height="40" stroke="black"/>
<rect x="160" y="560" width="40" height="40" stroke="black"/>
<rect x="160" y="200" width="40" height="40" stroke="black"/>
<rect x="160" y="400" width="40" height="40" stroke="black"/>
<rect x="320" y="40" width="40" height="40" stroke="black"/>
<rect x="320" y="240" width="40" height="40" stroke="black"/>
<rect x="320" y="360" width="40" height="40" stroke="black"/>
<rect x="320" y="80" width="40" height="40" stroke="black"/>
<rect x="320" y="280" width="40" height="40" stroke="black"/>
<rect x="320" y="400" width="40" height="40" stroke="black"/>
<rect x="320" y="120" width="40" height="40" stroke="black"/>
<rect x="320" y="320" width="40" height="40" stroke="black"/>
<rect x="320" y="440" width="40" height="40" stroke="black"/>
<rect x="320" y="520" width="40" height="40" stroke="black"/>
<rect x="320" y="160" width="40" height="40" stroke="black"/>
<rect x="320" y="360" width="40" height="40" stroke="black"/>
<rect x="320" y="480" width="40" height="40" stroke="black"/>
<rect x="320" y="560" width="40" height="40" stroke="black"/>
<rect x="320" y="200" width="40" height="40" stroke="black"/>
<rect x="320" y="400" width="40" height="40" stroke="black"/>
<rect x="480" y="40" width="40" height="40" stroke="black"/>
<rect x="480" y="240" width="40" height="40" stroke="black"/>
<rect x="480" y="360" width="40" height="40" stroke="black"/>
<rect x="480" y="80" width="40" height="40" stroke="black"/>
<rect x="480" y="280" width="40" height="40" stroke="black"/>
<rect x="480" y="400" width="40" height="40" stroke="black"/>
<rect x="480" y="120" width="40" height="40" stroke="black"/>
<rect x="480" y="320" width="40" height="40" stroke="black"/>
<rect x="480" y="440" width="40" height="40" stroke="black"/>
<rect x="480" y="520" width="40" height="40" stroke="black"/>
<rect x="480" y="160" width="40" height="40" stroke="black"/>
<rect x="480" y="360" width="40" height="40" stroke="black"/>
<rect x="480" y="480" width="40" height="40" stroke="black"/>
<rect x="480" y="560" width="40" height="40" stroke="black"/>
<rect x="480" y="200" width="40" height="40" stroke="black"/>
<rect x="480" y="400" width="40" height="40" stroke="black"/>
<rect x="560" y="40" width="40" height="40" stroke="black"/>
<rect x="560" y="240" width="40" height="40" stroke="black"/>
<rect x="560" y="360" width="40" height="40" stroke="black"/>
<rect x="560" y="80" width="40" height="40" stroke="black"/>
<rect x="560" y="280" width="40" height="40" stroke="black"/>
<rect x="560" y="400" width="40" height="40" stroke="black"/>
<rect x="560" y="120" width="40" height="40" stroke="black"/>
<rect x="560" y="320" width="40" height="40" stroke="black"/>
<rect x="560" y="440" width="40" height="40" stroke="black"/>
<rect x="560" y="520" width="40" height="40" stroke="black"/>
<rect x="560" y="160" width="40" height="40" stroke="black"/>
<rect x="560" y="360" width="40" height="40" stroke="black"/>
<rect x="560" y="480" width="40" height="40" stroke="black"/>
<rect x="560" y="560" width="40" height="40" stroke="black"/>
<rect x="560" y="200" width="40" height="40" stroke="black"/>
<rect x="560" y="400" width="40" height="40" stroke="black"/>
<path d="M39.634 620.256H41.2L46.654 633H44.638L43.36 629.85H37.294L36.034 633H34.018L39.634 620.256ZM42.73 628.338L40.354 622.488H40.318L37.906 628.338H42.73Z" fill="black"/>
<path d="M75.638 620.256H80.066C80.618 620.256 81.128 620.322 81.596 620.454C82.076 620.586 82.484 620.784 82.82 621.048C83.168 621.3 83.438 621.63 83.63 622.038C83.834 622.434 83.936 622.902 83.936 623.442C83.936 624.174 83.732 624.774 83.324 625.242C82.916 625.698 82.388 626.034 81.74 626.25V626.286C82.124 626.31 82.484 626.412 82.82 626.592C83.156 626.76 83.444 626.988 83.684 627.276C83.936 627.552 84.134 627.876 84.278 628.248C84.422 628.62 84.494 629.022 84.494 629.454C84.494 630.03 84.374 630.54 84.134 630.984C83.906 631.416 83.588 631.782 83.18 632.082C82.772 632.382 82.298 632.61 81.758 632.766C81.218 632.922 80.636 633 80.012 633H75.638V620.256ZM77.366 625.548H79.724C80.048 625.548 80.354 625.518 80.642 625.458C80.93 625.386 81.182 625.272 81.398 625.116C81.614 624.96 81.782 624.762 81.902 624.522C82.034 624.282 82.1 623.988 82.1 623.64C82.1 623.136 81.938 622.698 81.614 622.326C81.29 621.954 80.78 621.768 80.084 621.768H77.366V625.548ZM77.366 631.488H79.904C80.168 631.488 80.456 631.464 80.768 631.416C81.092 631.356 81.392 631.248 81.668 631.092C81.944 630.924 82.178 630.702 82.37 630.426C82.562 630.15 82.658 629.784 82.658 629.328C82.658 628.572 82.412 628.008 81.92 627.636C81.428 627.252 80.762 627.06 79.922 627.06H77.366V631.488Z" fill="black"/>
<path d="M124.512 623.01C124.152 622.542 123.696 622.182 123.144 621.93C122.592 621.678 122.022 621.552 121.434 621.552C120.714 621.552 120.06 621.69 119.472 621.966C118.896 622.23 118.398 622.596 117.978 623.064C117.57 623.532 117.252 624.084 117.024 624.72C116.796 625.344 116.682 626.016 116.682 626.736C116.682 627.408 116.79 628.044 117.006 628.644C117.222 629.244 117.534 629.772 117.942 630.228C118.35 630.684 118.848 631.044 119.436 631.308C120.024 631.572 120.69 631.704 121.434 631.704C122.166 631.704 122.808 631.554 123.36 631.254C123.912 630.954 124.38 630.534 124.764 629.994L126.222 631.092C126.126 631.224 125.958 631.416 125.718 631.668C125.478 631.908 125.16 632.154 124.764 632.406C124.368 632.646 123.888 632.856 123.324 633.036C122.772 633.228 122.13 633.324 121.398 633.324C120.39 633.324 119.478 633.132 118.662 632.748C117.858 632.364 117.168 631.86 116.592 631.236C116.028 630.612 115.596 629.91 115.296 629.13C114.996 628.338 114.846 627.54 114.846 626.736C114.846 625.752 115.008 624.846 115.332 624.018C115.656 623.178 116.106 622.458 116.682 621.858C117.27 621.246 117.972 620.772 118.788 620.436C119.604 620.1 120.504 619.932 121.488 619.932C122.328 619.932 123.15 620.094 123.954 620.418C124.77 620.742 125.436 621.24 125.952 621.912L124.512 623.01Z" fill="black"/>
<path d="M154.35 620.256H158.796C159.696 620.256 160.482 620.358 161.154 620.562C161.838 620.766 162.426 621.042 162.918 621.39C163.422 621.726 163.836 622.116 164.16 622.56C164.496 623.004 164.76 623.46 164.952 623.928C165.144 624.396 165.282 624.864 165.366 625.332C165.45 625.8 165.492 626.232 165.492 626.628C165.492 627.444 165.342 628.236 165.042 629.004C164.742 629.76 164.298 630.438 163.71 631.038C163.122 631.626 162.39 632.1 161.514 632.46C160.65 632.82 159.648 633 158.508 633H154.35V620.256ZM156.078 631.38H158.256C158.988 631.38 159.678 631.284 160.326 631.092C160.986 630.888 161.562 630.588 162.054 630.192C162.546 629.796 162.936 629.304 163.224 628.716C163.512 628.116 163.656 627.42 163.656 626.628C163.656 626.22 163.59 625.746 163.458 625.206C163.326 624.654 163.074 624.132 162.702 623.64C162.342 623.148 161.838 622.734 161.19 622.398C160.542 622.05 159.702 621.876 158.67 621.876H156.078V631.38Z" fill="black"/>
<path d="M195.638 620.256H203.864V621.876H197.366V625.674H203.414V627.294H197.366V631.38H204.188V633H195.638V620.256Z" fill="black"/>
<path d="M235.638 620.256H243.648V621.876H237.366V625.872H243.216V627.492H237.366V633H235.638V620.256Z" fill="black"/>
<path d="M435.638 620.256H437.366V625.764H437.51L443.144 620.256H445.556L439.4 626.142L445.97 633H443.45L437.51 626.628H437.366V633H435.638V620.256Z" fill="black"/>
<path d="M284.492 625.872V632.154C284.18 632.346 283.826 632.514 283.43 632.658C283.034 632.802 282.62 632.922 282.188 633.018C281.768 633.126 281.336 633.204 280.892 633.252C280.46 633.3 280.052 633.324 279.668 633.324C278.588 633.324 277.622 633.144 276.77 632.784C275.93 632.424 275.216 631.938 274.628 631.326C274.052 630.714 273.608 630.006 273.296 629.202C272.996 628.386 272.846 627.528 272.846 626.628C272.846 625.68 273.008 624.798 273.332 623.982C273.668 623.166 274.124 622.458 274.7 621.858C275.288 621.258 275.99 620.79 276.806 620.454C277.622 620.106 278.516 619.932 279.488 619.932C280.664 619.932 281.624 620.082 282.368 620.382C283.112 620.67 283.736 621.072 284.24 621.588L283.016 622.902C282.488 622.398 281.93 622.05 281.342 621.858C280.754 621.654 280.136 621.552 279.488 621.552C278.756 621.552 278.096 621.69 277.508 621.966C276.92 622.23 276.416 622.59 275.996 623.046C275.576 623.502 275.252 624.042 275.024 624.666C274.796 625.278 274.682 625.932 274.682 626.628C274.682 627.348 274.808 628.02 275.06 628.644C275.312 629.256 275.66 629.79 276.104 630.246C276.548 630.702 277.07 631.062 277.67 631.326C278.27 631.578 278.924 631.704 279.632 631.704C280.244 631.704 280.82 631.65 281.36 631.542C281.912 631.422 282.38 631.254 282.764 631.038V627.492H279.938V625.872H284.492Z" fill="black"/>
<path d="M476.638 620.256H478.366V631.38H484.216V633H476.638V620.256Z" fill="black"/>
<path d="M314.638 620.256H316.366V625.548H322.972V620.256H324.7V633H322.972V627.168H316.366V633H314.638V620.256Z" fill="black"/>
<path d="M512.512 620.256H515.086L519.136 629.904H519.208L523.222 620.256H525.796V633H524.068V622.524H524.032L519.73 633H518.578L514.276 622.524H514.24V633H512.512V620.256Z" fill="black"/>
<path d="M358.638 620.256H360.366V633H358.638V620.256Z" fill="black"/>
<path d="M553.638 620.256H555.906L562.926 630.732H562.962V620.256H564.69V633H562.494L555.402 622.524H555.366V633H553.638V620.256Z" fill="black"/>
<path d="M400.616 620.256H402.344V629.364C402.344 630.168 402.218 630.828 401.966 631.344C401.714 631.848 401.396 632.25 401.012 632.55C400.64 632.838 400.238 633.036 399.806 633.144C399.374 633.264 398.978 633.324 398.618 633.324C397.718 633.324 396.956 633.096 396.332 632.64C395.72 632.172 395.33 631.47 395.162 630.534L396.854 630.156C396.95 630.636 397.148 631.014 397.448 631.29C397.748 631.566 398.138 631.704 398.618 631.704C399.05 631.704 399.392 631.62 399.644 631.452C399.908 631.284 400.112 631.068 400.256 630.804C400.4 630.528 400.496 630.216 400.544 629.868C400.592 629.52 400.616 629.166 400.616 628.806V620.256Z" fill="black"/>
<path d="M600 633.216C603.834 633.216 606.39 630.57 606.39 626.34C606.39 622.11 603.762 619.554 600 619.554C596.238 619.554 593.61 622.11 593.61 626.34C593.61 630.57 596.256 633.216 600 633.216ZM600 631.758C597.21 631.758 595.32 629.652 595.32 626.34C595.32 623.046 597.192 621.012 600 621.012C602.808 621.012 604.68 623.046 604.68 626.34C604.68 629.652 602.808 631.758 600 631.758Z" fill="black"/>
<path d="M17.86 594.236L15.52 596.396L14.512 595.19L18.058 592.256H19.588V605H17.86V594.236Z" fill="black"/>
<path d="M16.96 397.188H17.032C17.428 396.996 17.896 396.9 18.436 396.9C18.892 396.9 19.354 396.978 19.822 397.134C20.29 397.29 20.71 397.536 21.082 397.872C21.466 398.196 21.778 398.616 22.018 399.132C22.258 399.636 22.378 400.236 22.378 400.932C22.378 401.64 22.258 402.264 22.018 402.804C21.79 403.332 21.478 403.776 21.082 404.136C20.686 404.496 20.224 404.766 19.696 404.946C19.168 405.126 18.604 405.216 18.004 405.216C17.404 405.216 16.84 405.12 16.312 404.928C15.784 404.736 15.322 404.46 14.926 404.1C14.53 403.74 14.212 403.308 13.972 402.804C13.744 402.3 13.63 401.736 13.63 401.112C13.63 400.716 13.66 400.356 13.72 400.032C13.78 399.708 13.864 399.402 13.972 399.114C14.092 398.814 14.23 398.526 14.386 398.25C14.542 397.962 14.716 397.662 14.908 397.35L18.13 392.256H20.164L16.96 397.188ZM15.358 401.058C15.358 401.442 15.418 401.796 15.538 402.12C15.67 402.444 15.85 402.726 16.078 402.966C16.318 403.194 16.6 403.374 16.924 403.506C17.248 403.638 17.608 403.704 18.004 403.704C18.4 403.704 18.76 403.638 19.084 403.506C19.408 403.374 19.684 403.194 19.912 402.966C20.152 402.726 20.332 402.444 20.452 402.12C20.584 401.796 20.65 401.442 20.65 401.058C20.65 400.674 20.584 400.32 20.452 399.996C20.332 399.672 20.152 399.396 19.912 399.168C19.684 398.928 19.408 398.742 19.084 398.61C18.76 398.478 18.4 398.412 18.004 398.412C17.608 398.412 17.248 398.478 16.924 398.61C16.6 398.742 16.318 398.928 16.078 399.168C15.85 399.396 15.67 399.672 15.538 399.996C15.418 400.32 15.358 400.674 15.358 401.058Z" fill="black"/>
<path d="M13.828 563.164L18.94 558.088C19.12 557.92 19.294 557.74 19.462 557.548C19.63 557.344 19.78 557.134 19.912 556.918C20.044 556.702 20.146 556.474 20.218 556.234C20.302 555.994 20.344 555.742 20.344 555.478C20.344 555.166 20.284 554.884 20.164 554.632C20.056 554.38 19.9 554.17 19.696 554.002C19.504 553.822 19.27 553.684 18.994 553.588C18.73 553.492 18.448 553.444 18.148 553.444C17.524 553.444 17.008 553.618 16.6 553.966C16.192 554.314 15.934 554.794 15.826 555.406L13.954 555.244C14.038 554.68 14.2 554.194 14.44 553.786C14.692 553.366 14.998 553.018 15.358 552.742C15.73 552.466 16.15 552.262 16.618 552.13C17.098 551.998 17.614 551.932 18.166 551.932C18.718 551.932 19.234 552.01 19.714 552.166C20.206 552.31 20.632 552.532 20.992 552.832C21.364 553.12 21.652 553.486 21.856 553.93C22.072 554.362 22.18 554.872 22.18 555.46C22.18 555.88 22.114 556.276 21.982 556.648C21.862 557.008 21.7 557.35 21.496 557.674C21.292 557.998 21.058 558.304 20.794 558.592C20.53 558.88 20.254 559.162 19.966 559.438L15.772 563.488H22.18V565H13.828V563.164Z" fill="black"/>
<path d="M19.912 353.768H13.756V352.256H21.766V353.732L16.69 365H14.746L19.912 353.768Z" fill="black"/>
<path d="M15.646 521.886C15.85 522.498 16.12 522.954 16.456 523.254C16.804 523.554 17.314 523.704 17.986 523.704C18.322 523.704 18.634 523.65 18.922 523.542C19.222 523.422 19.486 523.266 19.714 523.074C19.942 522.87 20.122 522.63 20.254 522.354C20.386 522.066 20.452 521.748 20.452 521.4C20.452 520.872 20.338 520.452 20.11 520.14C19.894 519.816 19.612 519.576 19.264 519.42C18.916 519.252 18.532 519.144 18.112 519.096C17.692 519.048 17.278 519.024 16.87 519.024V517.512C17.53 517.512 18.07 517.47 18.49 517.386C18.91 517.29 19.24 517.158 19.48 516.99C19.72 516.822 19.888 516.612 19.984 516.36C20.08 516.108 20.128 515.826 20.128 515.514C20.128 514.83 19.924 514.314 19.516 513.966C19.108 513.618 18.598 513.444 17.986 513.444C17.518 513.444 17.092 513.582 16.708 513.858C16.336 514.122 16.054 514.476 15.862 514.92L14.098 514.326C14.434 513.51 14.944 512.91 15.628 512.526C16.324 512.13 17.098 511.932 17.95 511.932C18.466 511.932 18.958 512.004 19.426 512.148C19.906 512.28 20.326 512.49 20.686 512.778C21.046 513.066 21.328 513.432 21.532 513.876C21.748 514.308 21.856 514.818 21.856 515.406C21.856 516.078 21.652 516.678 21.244 517.206C20.848 517.734 20.326 518.094 19.678 518.286V518.322C20.074 518.394 20.428 518.526 20.74 518.718C21.052 518.91 21.316 519.15 21.532 519.438C21.748 519.726 21.91 520.05 22.018 520.41C22.126 520.758 22.18 521.13 22.18 521.526C22.18 522.138 22.06 522.678 21.82 523.146C21.592 523.602 21.28 523.986 20.884 524.298C20.5 524.598 20.05 524.826 19.534 524.982C19.03 525.138 18.496 525.216 17.932 525.216C16.96 525.216 16.102 524.994 15.358 524.55C14.626 524.106 14.116 523.404 13.828 522.444L15.646 521.886Z" fill="black"/>
<path d="M18.004 325.216C17.428 325.216 16.882 325.132 16.366 324.964C15.862 324.784 15.424 324.526 15.052 324.19C14.68 323.854 14.386 323.446 14.17 322.966C13.954 322.486 13.846 321.946 13.846 321.346C13.846 320.95 13.906 320.584 14.026 320.248C14.158 319.912 14.332 319.612 14.548 319.348C14.764 319.072 15.016 318.844 15.304 318.664C15.604 318.472 15.928 318.328 16.276 318.232V318.178C16.036 318.118 15.796 318.01 15.556 317.854C15.316 317.698 15.1 317.5 14.908 317.26C14.728 317.02 14.578 316.732 14.458 316.396C14.338 316.048 14.278 315.652 14.278 315.208C14.278 314.728 14.374 314.296 14.566 313.912C14.77 313.516 15.04 313.18 15.376 312.904C15.724 312.628 16.12 312.418 16.564 312.274C17.02 312.118 17.5 312.04 18.004 312.04C18.508 312.04 18.982 312.118 19.426 312.274C19.882 312.418 20.278 312.628 20.614 312.904C20.962 313.18 21.232 313.516 21.424 313.912C21.628 314.296 21.73 314.728 21.73 315.208C21.73 315.652 21.67 316.048 21.55 316.396C21.43 316.732 21.274 317.02 21.082 317.26C20.902 317.5 20.692 317.698 20.452 317.854C20.212 318.01 19.972 318.118 19.732 318.178V318.232C20.08 318.328 20.398 318.472 20.686 318.664C20.986 318.844 21.244 319.072 21.46 319.348C21.676 319.612 21.844 319.912 21.964 320.248C22.096 320.584 22.162 320.95 22.162 321.346C22.162 321.946 22.054 322.486 21.838 322.966C21.622 323.446 21.328 323.854 20.956 324.19C20.584 324.526 20.14 324.784 19.624 324.964C19.12 325.132 18.58 325.216 18.004 325.216ZM16.006 315.46C16.006 315.712 16.048 315.958 16.132 316.198C16.228 316.438 16.36 316.654 16.528 316.846C16.696 317.026 16.9 317.176 17.14 317.296C17.392 317.416 17.68 317.476 18.004 317.476C18.34 317.476 18.628 317.422 18.868 317.314C19.12 317.194 19.33 317.044 19.498 316.864C19.666 316.672 19.792 316.456 19.876 316.216C19.96 315.976 20.002 315.724 20.002 315.46C20.002 314.872 19.816 314.392 19.444 314.02C19.084 313.636 18.604 313.444 18.004 313.444C17.452 313.444 16.978 313.63 16.582 314.002C16.198 314.374 16.006 314.86 16.006 315.46ZM18.004 323.704C18.724 323.704 19.306 323.488 19.75 323.056C20.206 322.612 20.434 322.042 20.434 321.346C20.434 320.962 20.368 320.626 20.236 320.338C20.116 320.038 19.942 319.792 19.714 319.6C19.498 319.396 19.24 319.246 18.94 319.15C18.652 319.042 18.34 318.988 18.004 318.988C17.296 319 16.714 319.228 16.258 319.672C15.802 320.104 15.574 320.662 15.574 321.346C15.574 321.718 15.64 322.054 15.772 322.354C15.904 322.642 16.078 322.888 16.294 323.092C16.522 323.284 16.78 323.434 17.068 323.542C17.368 323.65 17.68 323.704 18.004 323.704Z" fill="black"/>
<path d="M19.048 482.192H13.612V480.428L18.688 472.256H20.776V480.68H22.576V482.192H20.776V485H19.048V482.192ZM19.048 474.308H19.012L15.124 480.68H19.048V474.308Z" fill="black"/>
<path d="M19.048 280.068H18.976C18.58 280.26 18.112 280.356 17.572 280.356C17.116 280.356 16.654 280.278 16.186 280.122C15.718 279.966 15.292 279.726 14.908 279.402C14.536 279.066 14.23 278.646 13.99 278.142C13.75 277.626 13.63 277.02 13.63 276.324C13.63 275.628 13.744 275.016 13.972 274.488C14.212 273.948 14.53 273.498 14.926 273.138C15.322 272.778 15.784 272.508 16.312 272.328C16.84 272.136 17.404 272.04 18.004 272.04C18.604 272.04 19.168 272.136 19.696 272.328C20.224 272.52 20.686 272.796 21.082 273.156C21.478 273.516 21.79 273.948 22.018 274.452C22.258 274.956 22.378 275.52 22.378 276.144C22.378 276.54 22.348 276.9 22.288 277.224C22.228 277.548 22.138 277.86 22.018 278.16C21.91 278.448 21.778 278.736 21.622 279.024C21.466 279.312 21.292 279.606 21.1 279.906L17.878 285H15.844L19.048 280.068ZM20.65 276.198C20.65 275.814 20.584 275.46 20.452 275.136C20.332 274.812 20.152 274.536 19.912 274.308C19.684 274.068 19.408 273.882 19.084 273.75C18.76 273.618 18.4 273.552 18.004 273.552C17.608 273.552 17.248 273.618 16.924 273.75C16.6 273.882 16.318 274.068 16.078 274.308C15.85 274.536 15.67 274.812 15.538 275.136C15.418 275.46 15.358 275.814 15.358 276.198C15.358 276.582 15.418 276.936 15.538 277.26C15.67 277.584 15.85 277.866 16.078 278.106C16.318 278.334 16.6 278.514 16.924 278.646C17.248 278.778 17.608 278.844 18.004 278.844C18.4 278.844 18.76 278.778 19.084 278.646C19.408 278.514 19.684 278.334 19.912 278.106C20.152 277.866 20.332 277.584 20.452 277.26C20.584 276.936 20.65 276.582 20.65 276.198Z" fill="black"/>
<path d="M21.478 433.876H16.312L16.258 437.062C16.342 437.026 16.462 436.99 16.618 436.954C16.774 436.918 16.93 436.888 17.086 436.864C17.254 436.84 17.416 436.822 17.572 436.81C17.728 436.798 17.86 436.792 17.968 436.792C18.568 436.792 19.108 436.894 19.588 437.098C20.08 437.302 20.5 437.59 20.848 437.962C21.196 438.334 21.46 438.778 21.64 439.294C21.832 439.81 21.928 440.38 21.928 441.004C21.928 441.64 21.808 442.216 21.568 442.732C21.34 443.248 21.022 443.692 20.614 444.064C20.206 444.436 19.732 444.724 19.192 444.928C18.652 445.12 18.07 445.216 17.446 445.216C16.582 445.216 15.802 444.994 15.106 444.55C14.41 444.106 13.912 443.47 13.612 442.642L15.358 442.048C15.586 442.636 15.892 443.062 16.276 443.326C16.66 443.578 17.14 443.704 17.716 443.704C18.052 443.704 18.37 443.644 18.67 443.524C18.982 443.404 19.246 443.236 19.462 443.02C19.69 442.792 19.87 442.516 20.002 442.192C20.134 441.868 20.2 441.502 20.2 441.094C20.2 440.158 19.912 439.462 19.336 439.006C18.772 438.538 18.034 438.304 17.122 438.304C16.798 438.304 16.384 438.364 15.88 438.484C15.388 438.592 14.926 438.754 14.494 438.97L14.638 432.256H21.478V433.876Z" fill="black"/>
<path d="M7.86 234.236L5.52 236.396L4.512 235.19L8.058 232.256H9.588V245H7.86V234.236ZM13.614 238.628C13.614 238.16 13.638 237.674 13.686 237.17C13.734 236.666 13.818 236.174 13.938 235.694C14.07 235.202 14.238 234.734 14.442 234.29C14.658 233.846 14.928 233.462 15.252 233.138C15.588 232.802 15.978 232.538 16.422 232.346C16.878 232.142 17.406 232.04 18.006 232.04C18.606 232.04 19.128 232.142 19.572 232.346C20.028 232.538 20.418 232.802 20.742 233.138C21.078 233.462 21.348 233.846 21.552 234.29C21.768 234.734 21.936 235.202 22.056 235.694C22.188 236.174 22.278 236.666 22.326 237.17C22.374 237.674 22.398 238.16 22.398 238.628C22.398 239.3 22.338 240.02 22.218 240.788C22.098 241.556 21.876 242.27 21.552 242.93C21.228 243.59 20.778 244.136 20.202 244.568C19.638 245 18.906 245.216 18.006 245.216C17.106 245.216 16.368 245 15.792 244.568C15.228 244.136 14.784 243.59 14.46 242.93C14.136 242.27 13.914 241.556 13.794 240.788C13.674 240.02 13.614 239.3 13.614 238.628ZM15.342 238.628C15.342 239.048 15.366 239.546 15.414 240.122C15.474 240.698 15.594 241.256 15.774 241.796C15.954 242.324 16.218 242.774 16.566 243.146C16.926 243.518 17.406 243.704 18.006 243.704C18.606 243.704 19.08 243.518 19.428 243.146C19.788 242.774 20.058 242.324 20.238 241.796C20.418 241.256 20.532 240.698 20.58 240.122C20.64 239.546 20.67 239.048 20.67 238.628C20.67 238.34 20.658 238.016 20.634 237.656C20.622 237.284 20.58 236.912 20.508 236.54C20.448 236.156 20.358 235.79 20.238 235.442C20.118 235.082 19.956 234.764 19.752 234.488C19.56 234.2 19.32 233.972 19.032 233.804C18.744 233.636 18.402 233.552 18.006 233.552C17.61 233.552 17.268 233.636 16.98 233.804C16.692 233.972 16.446 234.2 16.242 234.488C16.05 234.764 15.894 235.082 15.774 235.442C15.654 235.79 15.558 236.156 15.486 236.54C15.426 236.912 15.384 237.284 15.36 237.656C15.348 238.016 15.342 238.34 15.342 238.628Z" fill="black"/>
<path d="M7.86 194.236L5.52 196.396L4.512 195.19L8.058 192.256H9.588V205H7.86V194.236ZM17.862 194.236L15.522 196.396L14.514 195.19L18.06 192.256H19.59V205H17.862V194.236Z" fill="black"/>
<path d="M7.86 154.236L5.52 156.396L4.512 155.19L8.058 152.256H9.588V165H7.86V154.236ZM13.83 163.164L18.942 158.088C19.122 157.92 19.296 157.74 19.464 157.548C19.632 157.344 19.782 157.134 19.914 156.918C20.046 156.702 20.148 156.474 20.22 156.234C20.304 155.994 20.346 155.742 20.346 155.478C20.346 155.166 20.286 154.884 20.166 154.632C20.058 154.38 19.902 154.17 19.698 154.002C19.506 153.822 19.272 153.684 18.996 153.588C18.732 153.492 18.45 153.444 18.15 153.444C17.526 153.444 17.01 153.618 16.602 153.966C16.194 154.314 15.936 154.794 15.828 155.406L13.956 155.244C14.04 154.68 14.202 154.194 14.442 153.786C14.694 153.366 15 153.018 15.36 152.742C15.732 152.466 16.152 152.262 16.62 152.13C17.1 151.998 17.616 151.932 18.168 151.932C18.72 151.932 19.236 152.01 19.716 152.166C20.208 152.31 20.634 152.532 20.994 152.832C21.366 153.12 21.654 153.486 21.858 153.93C22.074 154.362 22.182 154.872 22.182 155.46C22.182 155.88 22.116 156.276 21.984 156.648C21.864 157.008 21.702 157.35 21.498 157.674C21.294 157.998 21.06 158.304 20.796 158.592C20.532 158.88 20.256 159.162 19.968 159.438L15.774 163.488H22.182V165H13.83V163.164Z" fill="black"/>
<path d="M7.86 114.236L5.52 116.396L4.512 115.19L8.058 112.256H9.588V125H7.86V114.236ZM15.648 121.886C15.852 122.498 16.122 122.954 16.458 123.254C16.806 123.554 17.316 123.704 17.988 123.704C18.324 123.704 18.636 123.65 18.924 123.542C19.224 123.422 19.488 123.266 19.716 123.074C19.944 122.87 20.124 122.63 20.256 122.354C20.388 122.066 20.454 121.748 20.454 121.4C20.454 120.872 20.34 120.452 20.112 120.14C19.896 119.816 19.614 119.576 19.266 119.42C18.918 119.252 18.534 119.144 18.114 119.096C17.694 119.048 17.28 119.024 16.872 119.024V117.512C17.532 117.512 18.072 117.47 18.492 117.386C18.912 117.29 19.242 117.158 19.482 116.99C19.722 116.822 19.89 116.612 19.986 116.36C20.082 116.108 20.13 115.826 20.13 115.514C20.13 114.83 19.926 114.314 19.518 113.966C19.11 113.618 18.6 113.444 17.988 113.444C17.52 113.444 17.094 113.582 16.71 113.858C16.338 114.122 16.056 114.476 15.864 114.92L14.1 114.326C14.436 113.51 14.946 112.91 15.63 112.526C16.326 112.13 17.1 111.932 17.952 111.932C18.468 111.932 18.96 112.004 19.428 112.148C19.908 112.28 20.328 112.49 20.688 112.778C21.048 113.066 21.33 113.432 21.534 113.876C21.75 114.308 21.858 114.818 21.858 115.406C21.858 116.078 21.654 116.678 21.246 117.206C20.85 117.734 20.328 118.094 19.68 118.286V118.322C20.076 118.394 20.43 118.526 20.742 118.718C21.054 118.91 21.318 119.15 21.534 119.438C21.75 119.726 21.912 120.05 22.02 120.41C22.128 120.758 22.182 121.13 22.182 121.526C22.182 122.138 22.062 122.678 21.822 123.146C21.594 123.602 21.282 123.986 20.886 124.298C20.502 124.598 20.052 124.826 19.536 124.982C19.032 125.138 18.498 125.216 17.934 125.216C16.962 125.216 16.104 124.994 15.36 124.55C14.628 124.106 14.118 123.404 13.83 122.444L15.648 121.886Z" fill="black"/>
<path d="M7.86 74.236L5.52 76.396L4.512 75.19L8.058 72.256H9.588V85H7.86V74.236ZM19.05 82.192H13.614V80.428L18.69 72.256H20.778V80.68H22.578V82.192H20.778V85H19.05V82.192ZM19.05 74.308H19.014L15.126 80.68H19.05V74.308Z" fill="black"/>
<path d="M7.86 34.236L5.52 36.396L4.512 35.19L8.058 32.256H9.588V45H7.86V34.236ZM21.48 33.876H16.314L16.26 37.062C16.344 37.026 16.464 36.99 16.62 36.954C16.776 36.918 16.932 36.888 17.088 36.864C17.256 36.84 17.418 36.822 17.574 36.81C17.73 36.798 17.862 36.792 17.97 36.792C18.57 36.792 19.11 36.894 19.59 37.098C20.082 37.302 20.502 37.59 20.85 37.962C21.198 38.334 21.462 38.778 21.642 39.294C21.834 39.81 21.93 40.38 21.93 41.004C21.93 41.64 21.81 42.216 21.57 42.732C21.342 43.248 21.024 43.692 20.616 44.064C20.208 44.436 19.734 44.724 19.194 44.928C18.654 45.12 18.072 45.216 17.448 45.216C16.584 45.216 15.804 44.994 15.108 44.55C14.412 44.106 13.914 43.47 13.614 42.642L15.36 42.048C15.588 42.636 15.894 43.062 16.278 43.326C16.662 43.578 17.142 43.704 17.718 43.704C18.054 43.704 18.372 43.644 18.672 43.524C18.984 43.404 19.248 43.236 19.464 43.02C19.692 42.792 19.872 42.516 20.004 42.192C20.136 41.868 20.202 41.502 20.202 41.094C20.202 40.158 19.914 39.462 19.338 39.006C18.774 38.538 18.036 38.304 17.124 38.304C16.8 38.304 16.386 38.364 15.882 38.484C15.39 38.592 14.928 38.754 14.496 38.97L14.64 32.256H21.48V33.876Z" fill="black"/>
<circle cx="160" cy="160" r="5" fill="black"/>
<circle cx="160" cy="480" r="5" fill="black"/>
<circle cx="480" cy="160" r="5" fill="black"/>
<circle cx="480" cy="480" r="5" fill="black"/>
<circle cx="320" cy="320" r="5" fill="black"/>
</svg>
